<?xml version="1.0" encoding="utf-8" standalone="no"?>
<!DOCTYPE svg PUBLIC "-//W3C//DTD SVG 1.1//EN"
  "http://www.w3.org/Graphics/SVG/1.1/DTD/svg11.dtd">
<svg xmlns:xlink="http://www.w3.org/1999/xlink" width="1152pt" height="1152pt" viewBox="0 0 1152 1152" xmlns="http://www.w3.org/2000/svg" version="1.1">
 <metadata>
  <rdf:RDF xmlns:dc="http://purl.org/dc/elements/1.1/" xmlns:cc="http://creativecommons.org/ns#" xmlns:rdf="http://www.w3.org/1999/02/22-rdf-syntax-ns#">
   <cc:Work>
    <dc:type rdf:resource="http://purl.org/dc/dcmitype/StillImage"/>
    <dc:date>2023-06-01T09:21:42.524561</dc:date>
    <dc:format>image/svg+xml</dc:format>
    <dc:creator>
     <cc:Agent>
      <dc:title>Matplotlib v3.5.3, https://matplotlib.org/</dc:title>
     </cc:Agent>
    </dc:creator>
   </cc:Work>
  </rdf:RDF>
 </metadata>
 <defs>
  <style type="text/css">*{stroke-linejoin: round; stroke-linecap: butt}</style>
 </defs>
 <g id="figure_1">
  <g id="patch_1">
   <path d="M 0 1152 
L 1152 1152 
L 1152 0 
L 0 0 
z
" style="fill: #ffffff"/>
  </g>
  <g id="axes_1">
   <g id="patch_2">
    <path d="M 144 1008 
L 1036.8 1008 
L 1036.8 138.24 
L 144 138.24 
z
" style="fill: #ffffff"/>
   </g>
   <g id="matplotlib.axis_1">
    <g id="xtick_1">
     <g id="line2d_1">
      <path d="M 184.581818 1008 
L 184.581818 138.24 
" clip-path="url(#pa3ca4f73af)" style="fill: none; stroke: #cccccc; stroke-width: 0.8; stroke-linecap: round"/>
     </g>
     <g id="line2d_2"/>
     <g id="text_1">
      <!-- 0 -->
      <g style="fill: #262626" transform="translate(173.459943 1040.13125)scale(0.4 -0.4)">
       <defs>
        <path id="ArialMT-30" d="M 266 2259 
Q 266 3072 433 3567 
Q 600 4063 929 4331 
Q 1259 4600 1759 4600 
Q 2128 4600 2406 4451 
Q 2684 4303 2865 4023 
Q 3047 3744 3150 3342 
Q 3253 2941 3253 2259 
Q 3253 1453 3087 958 
Q 2922 463 2592 192 
Q 2263 -78 1759 -78 
Q 1097 -78 719 397 
Q 266 969 266 2259 
z
M 844 2259 
Q 844 1131 1108 757 
Q 1372 384 1759 384 
Q 2147 384 2411 759 
Q 2675 1134 2675 2259 
Q 2675 3391 2411 3762 
Q 2147 4134 1753 4134 
Q 1366 4134 1134 3806 
Q 844 3388 844 2259 
z
" transform="scale(0.015625)"/>
       </defs>
       <use xlink:href="#ArialMT-30"/>
      </g>
     </g>
    </g>
    <g id="xtick_2">
     <g id="line2d_3">
      <path d="M 332.961409 1008 
L 332.961409 138.24 
" clip-path="url(#pa3ca4f73af)" style="fill: none; stroke: #cccccc; stroke-width: 0.8; stroke-linecap: round"/>
     </g>
     <g id="line2d_4"/>
     <g id="text_2">
      <!-- 100 -->
      <g style="fill: #262626" transform="translate(299.595784 1040.13125)scale(0.4 -0.4)">
       <defs>
        <path id="ArialMT-31" d="M 2384 0 
L 1822 0 
L 1822 3584 
Q 1619 3391 1289 3197 
Q 959 3003 697 2906 
L 697 3450 
Q 1169 3672 1522 3987 
Q 1875 4303 2022 4600 
L 2384 4600 
L 2384 0 
z
" transform="scale(0.015625)"/>
       </defs>
       <use xlink:href="#ArialMT-31"/>
       <use xlink:href="#ArialMT-30" x="55.615234"/>
       <use xlink:href="#ArialMT-30" x="111.230469"/>
      </g>
     </g>
    </g>
    <g id="xtick_3">
     <g id="line2d_5">
      <path d="M 481.341 1008 
L 481.341 138.24 
" clip-path="url(#pa3ca4f73af)" style="fill: none; stroke: #cccccc; stroke-width: 0.8; stroke-linecap: round"/>
     </g>
     <g id="line2d_6"/>
     <g id="text_3">
      <!-- 200 -->
      <g style="fill: #262626" transform="translate(447.975375 1040.13125)scale(0.4 -0.4)">
       <defs>
        <path id="ArialMT-32" d="M 3222 541 
L 3222 0 
L 194 0 
Q 188 203 259 391 
Q 375 700 629 1000 
Q 884 1300 1366 1694 
Q 2113 2306 2375 2664 
Q 2638 3022 2638 3341 
Q 2638 3675 2398 3904 
Q 2159 4134 1775 4134 
Q 1369 4134 1125 3890 
Q 881 3647 878 3216 
L 300 3275 
Q 359 3922 746 4261 
Q 1134 4600 1788 4600 
Q 2447 4600 2831 4234 
Q 3216 3869 3216 3328 
Q 3216 3053 3103 2787 
Q 2991 2522 2730 2228 
Q 2469 1934 1863 1422 
Q 1356 997 1212 845 
Q 1069 694 975 541 
L 3222 541 
z
" transform="scale(0.015625)"/>
       </defs>
       <use xlink:href="#ArialMT-32"/>
       <use xlink:href="#ArialMT-30" x="55.615234"/>
       <use xlink:href="#ArialMT-30" x="111.230469"/>
      </g>
     </g>
    </g>
    <g id="xtick_4">
     <g id="line2d_7">
      <path d="M 629.720592 1008 
L 629.720592 138.24 
" clip-path="url(#pa3ca4f73af)" style="fill: none; stroke: #cccccc; stroke-width: 0.8; stroke-linecap: round"/>
     </g>
     <g id="line2d_8"/>
     <g id="text_4">
      <!-- 300 -->
      <g style="fill: #262626" transform="translate(596.354967 1040.13125)scale(0.4 -0.4)">
       <defs>
        <path id="ArialMT-33" d="M 269 1209 
L 831 1284 
Q 928 806 1161 595 
Q 1394 384 1728 384 
Q 2125 384 2398 659 
Q 2672 934 2672 1341 
Q 2672 1728 2419 1979 
Q 2166 2231 1775 2231 
Q 1616 2231 1378 2169 
L 1441 2663 
Q 1497 2656 1531 2656 
Q 1891 2656 2178 2843 
Q 2466 3031 2466 3422 
Q 2466 3731 2256 3934 
Q 2047 4138 1716 4138 
Q 1388 4138 1169 3931 
Q 950 3725 888 3313 
L 325 3413 
Q 428 3978 793 4289 
Q 1159 4600 1703 4600 
Q 2078 4600 2393 4439 
Q 2709 4278 2876 4000 
Q 3044 3722 3044 3409 
Q 3044 3113 2884 2869 
Q 2725 2625 2413 2481 
Q 2819 2388 3044 2092 
Q 3269 1797 3269 1353 
Q 3269 753 2831 336 
Q 2394 -81 1725 -81 
Q 1122 -81 723 278 
Q 325 638 269 1209 
z
" transform="scale(0.015625)"/>
       </defs>
       <use xlink:href="#ArialMT-33"/>
       <use xlink:href="#ArialMT-30" x="55.615234"/>
       <use xlink:href="#ArialMT-30" x="111.230469"/>
      </g>
     </g>
    </g>
    <g id="xtick_5">
     <g id="line2d_9">
      <path d="M 778.100183 1008 
L 778.100183 138.24 
" clip-path="url(#pa3ca4f73af)" style="fill: none; stroke: #cccccc; stroke-width: 0.8; stroke-linecap: round"/>
     </g>
     <g id="line2d_10"/>
     <g id="text_5">
      <!-- 400 -->
      <g style="fill: #262626" transform="translate(744.734558 1040.13125)scale(0.4 -0.4)">
       <defs>
        <path id="ArialMT-34" d="M 2069 0 
L 2069 1097 
L 81 1097 
L 81 1613 
L 2172 4581 
L 2631 4581 
L 2631 1613 
L 3250 1613 
L 3250 1097 
L 2631 1097 
L 2631 0 
L 2069 0 
z
M 2069 1613 
L 2069 3678 
L 634 1613 
L 2069 1613 
z
" transform="scale(0.015625)"/>
       </defs>
       <use xlink:href="#ArialMT-34"/>
       <use xlink:href="#ArialMT-30" x="55.615234"/>
       <use xlink:href="#ArialMT-30" x="111.230469"/>
      </g>
     </g>
    </g>
    <g id="xtick_6">
     <g id="line2d_11">
      <path d="M 926.479774 1008 
L 926.479774 138.24 
" clip-path="url(#pa3ca4f73af)" style="fill: none; stroke: #cccccc; stroke-width: 0.8; stroke-linecap: round"/>
     </g>
     <g id="line2d_12"/>
     <g id="text_6">
      <!-- 500 -->
      <g style="fill: #262626" transform="translate(893.114149 1040.13125)scale(0.4 -0.4)">
       <defs>
        <path id="ArialMT-35" d="M 266 1200 
L 856 1250 
Q 922 819 1161 601 
Q 1400 384 1738 384 
Q 2144 384 2425 690 
Q 2706 997 2706 1503 
Q 2706 1984 2436 2262 
Q 2166 2541 1728 2541 
Q 1456 2541 1237 2417 
Q 1019 2294 894 2097 
L 366 2166 
L 809 4519 
L 3088 4519 
L 3088 3981 
L 1259 3981 
L 1013 2750 
Q 1425 3038 1878 3038 
Q 2478 3038 2890 2622 
Q 3303 2206 3303 1553 
Q 3303 931 2941 478 
Q 2500 -78 1738 -78 
Q 1113 -78 717 272 
Q 322 622 266 1200 
z
" transform="scale(0.015625)"/>
       </defs>
       <use xlink:href="#ArialMT-35"/>
       <use xlink:href="#ArialMT-30" x="55.615234"/>
       <use xlink:href="#ArialMT-30" x="111.230469"/>
      </g>
     </g>
    </g>
    <g id="text_7">
     <!--  -->
     <g style="fill: #262626" transform="translate(590.4 1080.7125)scale(0.4 -0.4)"/>
     <!--  Time [hours] -->
     <g style="fill: #262626" transform="translate(474.809375 1123.02)scale(0.4 -0.4)">
      <defs>
       <path id="ArialMT-20" transform="scale(0.015625)"/>
       <path id="ArialMT-54" d="M 1659 0 
L 1659 4041 
L 150 4041 
L 150 4581 
L 3781 4581 
L 3781 4041 
L 2266 4041 
L 2266 0 
L 1659 0 
z
" transform="scale(0.015625)"/>
       <path id="ArialMT-69" d="M 425 3934 
L 425 4581 
L 988 4581 
L 988 3934 
L 425 3934 
z
M 425 0 
L 425 3319 
L 988 3319 
L 988 0 
L 425 0 
z
" transform="scale(0.015625)"/>
       <path id="ArialMT-6d" d="M 422 0 
L 422 3319 
L 925 3319 
L 925 2853 
Q 1081 3097 1340 3245 
Q 1600 3394 1931 3394 
Q 2300 3394 2536 3241 
Q 2772 3088 2869 2813 
Q 3263 3394 3894 3394 
Q 4388 3394 4653 3120 
Q 4919 2847 4919 2278 
L 4919 0 
L 4359 0 
L 4359 2091 
Q 4359 2428 4304 2576 
Q 4250 2725 4106 2815 
Q 3963 2906 3769 2906 
Q 3419 2906 3187 2673 
Q 2956 2441 2956 1928 
L 2956 0 
L 2394 0 
L 2394 2156 
Q 2394 2531 2256 2718 
Q 2119 2906 1806 2906 
Q 1569 2906 1367 2781 
Q 1166 2656 1075 2415 
Q 984 2175 984 1722 
L 984 0 
L 422 0 
z
" transform="scale(0.015625)"/>
       <path id="ArialMT-65" d="M 2694 1069 
L 3275 997 
Q 3138 488 2766 206 
Q 2394 -75 1816 -75 
Q 1088 -75 661 373 
Q 234 822 234 1631 
Q 234 2469 665 2931 
Q 1097 3394 1784 3394 
Q 2450 3394 2872 2941 
Q 3294 2488 3294 1666 
Q 3294 1616 3291 1516 
L 816 1516 
Q 847 969 1125 678 
Q 1403 388 1819 388 
Q 2128 388 2347 550 
Q 2566 713 2694 1069 
z
M 847 1978 
L 2700 1978 
Q 2663 2397 2488 2606 
Q 2219 2931 1791 2931 
Q 1403 2931 1139 2672 
Q 875 2413 847 1978 
z
" transform="scale(0.015625)"/>
       <path id="ArialMT-5b" d="M 434 -1272 
L 434 4581 
L 1675 4581 
L 1675 4116 
L 997 4116 
L 997 -806 
L 1675 -806 
L 1675 -1272 
L 434 -1272 
z
" transform="scale(0.015625)"/>
       <path id="ArialMT-68" d="M 422 0 
L 422 4581 
L 984 4581 
L 984 2938 
Q 1378 3394 1978 3394 
Q 2347 3394 2619 3248 
Q 2891 3103 3008 2847 
Q 3125 2591 3125 2103 
L 3125 0 
L 2563 0 
L 2563 2103 
Q 2563 2525 2380 2717 
Q 2197 2909 1863 2909 
Q 1613 2909 1392 2779 
Q 1172 2650 1078 2428 
Q 984 2206 984 1816 
L 984 0 
L 422 0 
z
" transform="scale(0.015625)"/>
       <path id="ArialMT-6f" d="M 213 1659 
Q 213 2581 725 3025 
Q 1153 3394 1769 3394 
Q 2453 3394 2887 2945 
Q 3322 2497 3322 1706 
Q 3322 1066 3130 698 
Q 2938 331 2570 128 
Q 2203 -75 1769 -75 
Q 1072 -75 642 372 
Q 213 819 213 1659 
z
M 791 1659 
Q 791 1022 1069 705 
Q 1347 388 1769 388 
Q 2188 388 2466 706 
Q 2744 1025 2744 1678 
Q 2744 2294 2464 2611 
Q 2184 2928 1769 2928 
Q 1347 2928 1069 2612 
Q 791 2297 791 1659 
z
" transform="scale(0.015625)"/>
       <path id="ArialMT-75" d="M 2597 0 
L 2597 488 
Q 2209 -75 1544 -75 
Q 1250 -75 995 37 
Q 741 150 617 320 
Q 494 491 444 738 
Q 409 903 409 1263 
L 409 3319 
L 972 3319 
L 972 1478 
Q 972 1038 1006 884 
Q 1059 663 1231 536 
Q 1403 409 1656 409 
Q 1909 409 2131 539 
Q 2353 669 2445 892 
Q 2538 1116 2538 1541 
L 2538 3319 
L 3100 3319 
L 3100 0 
L 2597 0 
z
" transform="scale(0.015625)"/>
       <path id="ArialMT-72" d="M 416 0 
L 416 3319 
L 922 3319 
L 922 2816 
Q 1116 3169 1280 3281 
Q 1444 3394 1641 3394 
Q 1925 3394 2219 3213 
L 2025 2691 
Q 1819 2813 1613 2813 
Q 1428 2813 1281 2702 
Q 1134 2591 1072 2394 
Q 978 2094 978 1738 
L 978 0 
L 416 0 
z
" transform="scale(0.015625)"/>
       <path id="ArialMT-73" d="M 197 991 
L 753 1078 
Q 800 744 1014 566 
Q 1228 388 1613 388 
Q 2000 388 2187 545 
Q 2375 703 2375 916 
Q 2375 1106 2209 1216 
Q 2094 1291 1634 1406 
Q 1016 1563 777 1677 
Q 538 1791 414 1992 
Q 291 2194 291 2438 
Q 291 2659 392 2848 
Q 494 3038 669 3163 
Q 800 3259 1026 3326 
Q 1253 3394 1513 3394 
Q 1903 3394 2198 3281 
Q 2494 3169 2634 2976 
Q 2775 2784 2828 2463 
L 2278 2388 
Q 2241 2644 2061 2787 
Q 1881 2931 1553 2931 
Q 1166 2931 1000 2803 
Q 834 2675 834 2503 
Q 834 2394 903 2306 
Q 972 2216 1119 2156 
Q 1203 2125 1616 2013 
Q 2213 1853 2448 1751 
Q 2684 1650 2818 1456 
Q 2953 1263 2953 975 
Q 2953 694 2789 445 
Q 2625 197 2315 61 
Q 2006 -75 1616 -75 
Q 969 -75 630 194 
Q 291 463 197 991 
z
" transform="scale(0.015625)"/>
       <path id="ArialMT-5d" d="M 1363 -1272 
L 122 -1272 
L 122 -806 
L 800 -806 
L 800 4116 
L 122 4116 
L 122 4581 
L 1363 4581 
L 1363 -1272 
z
" transform="scale(0.015625)"/>
      </defs>
      <use xlink:href="#ArialMT-20"/>
      <use xlink:href="#ArialMT-54" x="26.033203"/>
      <use xlink:href="#ArialMT-69" x="83.367188"/>
      <use xlink:href="#ArialMT-6d" x="105.583984"/>
      <use xlink:href="#ArialMT-65" x="188.884766"/>
      <use xlink:href="#ArialMT-20" x="244.5"/>
      <use xlink:href="#ArialMT-5b" x="272.283203"/>
      <use xlink:href="#ArialMT-68" x="300.066406"/>
      <use xlink:href="#ArialMT-6f" x="355.681641"/>
      <use xlink:href="#ArialMT-75" x="411.296875"/>
      <use xlink:href="#ArialMT-72" x="466.912109"/>
      <use xlink:href="#ArialMT-73" x="500.212891"/>
      <use xlink:href="#ArialMT-5d" x="550.212891"/>
     </g>
    </g>
   </g>
   <g id="matplotlib.axis_2">
    <g id="ytick_1">
     <g id="line2d_13">
      <path d="M 144 968.659966 
L 1036.8 968.659966 
" clip-path="url(#pa3ca4f73af)" style="fill: none; stroke: #cccccc; stroke-width: 0.8; stroke-linecap: round"/>
     </g>
     <g id="line2d_14"/>
     <g id="text_8">
      <!-- 0 -->
      <g style="fill: #262626" transform="translate(118.25625 982.975591)scale(0.4 -0.4)">
       <use xlink:href="#ArialMT-30"/>
      </g>
     </g>
    </g>
    <g id="ytick_2">
     <g id="line2d_15">
      <path d="M 144 871.404012 
L 1036.8 871.404012 
" clip-path="url(#pa3ca4f73af)" style="fill: none; stroke: #cccccc; stroke-width: 0.8; stroke-linecap: round"/>
     </g>
     <g id="line2d_16"/>
     <g id="text_9">
      <!-- 500 -->
      <g style="fill: #262626" transform="translate(73.76875 885.719637)scale(0.4 -0.4)">
       <use xlink:href="#ArialMT-35"/>
       <use xlink:href="#ArialMT-30" x="55.615234"/>
       <use xlink:href="#ArialMT-30" x="111.230469"/>
      </g>
     </g>
    </g>
    <g id="ytick_3">
     <g id="line2d_17">
      <path d="M 144 774.148058 
L 1036.8 774.148058 
" clip-path="url(#pa3ca4f73af)" style="fill: none; stroke: #cccccc; stroke-width: 0.8; stroke-linecap: round"/>
     </g>
     <g id="line2d_18"/>
     <g id="text_10">
      <!-- 1000 -->
      <g style="fill: #262626" transform="translate(51.525 788.463683)scale(0.4 -0.4)">
       <use xlink:href="#ArialMT-31"/>
       <use xlink:href="#ArialMT-30" x="55.615234"/>
       <use xlink:href="#ArialMT-30" x="111.230469"/>
       <use xlink:href="#ArialMT-30" x="166.845703"/>
      </g>
     </g>
    </g>
    <g id="ytick_4">
     <g id="line2d_19">
      <path d="M 144 676.892103 
L 1036.8 676.892103 
" clip-path="url(#pa3ca4f73af)" style="fill: none; stroke: #cccccc; stroke-width: 0.8; stroke-linecap: round"/>
     </g>
     <g id="line2d_20"/>
     <g id="text_11">
      <!-- 1500 -->
      <g style="fill: #262626" transform="translate(51.525 691.207728)scale(0.4 -0.4)">
       <use xlink:href="#ArialMT-31"/>
       <use xlink:href="#ArialMT-35" x="55.615234"/>
       <use xlink:href="#ArialMT-30" x="111.230469"/>
       <use xlink:href="#ArialMT-30" x="166.845703"/>
      </g>
     </g>
    </g>
    <g id="ytick_5">
     <g id="line2d_21">
      <path d="M 144 579.636149 
L 1036.8 579.636149 
" clip-path="url(#pa3ca4f73af)" style="fill: none; stroke: #cccccc; stroke-width: 0.8; stroke-linecap: round"/>
     </g>
     <g id="line2d_22"/>
     <g id="text_12">
      <!-- 2000 -->
      <g style="fill: #262626" transform="translate(51.525 593.951774)scale(0.4 -0.4)">
       <use xlink:href="#ArialMT-32"/>
       <use xlink:href="#ArialMT-30" x="55.615234"/>
       <use xlink:href="#ArialMT-30" x="111.230469"/>
       <use xlink:href="#ArialMT-30" x="166.845703"/>
      </g>
     </g>
    </g>
    <g id="ytick_6">
     <g id="line2d_23">
      <path d="M 144 482.380195 
L 1036.8 482.380195 
" clip-path="url(#pa3ca4f73af)" style="fill: none; stroke: #cccccc; stroke-width: 0.8; stroke-linecap: round"/>
     </g>
     <g id="line2d_24"/>
     <g id="text_13">
      <!-- 2500 -->
      <g style="fill: #262626" transform="translate(51.525 496.69582)scale(0.4 -0.4)">
       <use xlink:href="#ArialMT-32"/>
       <use xlink:href="#ArialMT-35" x="55.615234"/>
       <use xlink:href="#ArialMT-30" x="111.230469"/>
       <use xlink:href="#ArialMT-30" x="166.845703"/>
      </g>
     </g>
    </g>
    <g id="ytick_7">
     <g id="line2d_25">
      <path d="M 144 385.12424 
L 1036.8 385.12424 
" clip-path="url(#pa3ca4f73af)" style="fill: none; stroke: #cccccc; stroke-width: 0.8; stroke-linecap: round"/>
     </g>
     <g id="line2d_26"/>
     <g id="text_14">
      <!-- 3000 -->
      <g style="fill: #262626" transform="translate(51.525 399.439865)scale(0.4 -0.4)">
       <use xlink:href="#ArialMT-33"/>
       <use xlink:href="#ArialMT-30" x="55.615234"/>
       <use xlink:href="#ArialMT-30" x="111.230469"/>
       <use xlink:href="#ArialMT-30" x="166.845703"/>
      </g>
     </g>
    </g>
    <g id="ytick_8">
     <g id="line2d_27">
      <path d="M 144 287.868286 
L 1036.8 287.868286 
" clip-path="url(#pa3ca4f73af)" style="fill: none; stroke: #cccccc; stroke-width: 0.8; stroke-linecap: round"/>
     </g>
     <g id="line2d_28"/>
     <g id="text_15">
      <!-- 3500 -->
      <g style="fill: #262626" transform="translate(51.525 302.183911)scale(0.4 -0.4)">
       <use xlink:href="#ArialMT-33"/>
       <use xlink:href="#ArialMT-35" x="55.615234"/>
       <use xlink:href="#ArialMT-30" x="111.230469"/>
       <use xlink:href="#ArialMT-30" x="166.845703"/>
      </g>
     </g>
    </g>
    <g id="ytick_9">
     <g id="line2d_29">
      <path d="M 144 190.612331 
L 1036.8 190.612331 
" clip-path="url(#pa3ca4f73af)" style="fill: none; stroke: #cccccc; stroke-width: 0.8; stroke-linecap: round"/>
     </g>
     <g id="line2d_30"/>
     <g id="text_16">
      <!-- 4000 -->
      <g style="fill: #262626" transform="translate(51.525 204.927956)scale(0.4 -0.4)">
       <use xlink:href="#ArialMT-34"/>
       <use xlink:href="#ArialMT-30" x="55.615234"/>
       <use xlink:href="#ArialMT-30" x="111.230469"/>
       <use xlink:href="#ArialMT-30" x="166.845703"/>
      </g>
     </g>
    </g>
    <g id="text_17">
     <!-- # Cancer Cells  -->
     <g style="fill: #262626" transform="translate(-2.7325 709.8325)rotate(-90)scale(0.4 -0.4)">
      <defs>
       <path id="ArialMT-23" d="M 322 -78 
L 594 1253 
L 66 1253 
L 66 1719 
L 688 1719 
L 919 2853 
L 66 2853 
L 66 3319 
L 1013 3319 
L 1284 4659 
L 1753 4659 
L 1481 3319 
L 2466 3319 
L 2738 4659 
L 3209 4659 
L 2938 3319 
L 3478 3319 
L 3478 2853 
L 2844 2853 
L 2609 1719 
L 3478 1719 
L 3478 1253 
L 2516 1253 
L 2244 -78 
L 1775 -78 
L 2044 1253 
L 1063 1253 
L 791 -78 
L 322 -78 
z
M 1156 1719 
L 2138 1719 
L 2372 2853 
L 1388 2853 
L 1156 1719 
z
" transform="scale(0.015625)"/>
       <path id="ArialMT-43" d="M 3763 1606 
L 4369 1453 
Q 4178 706 3683 314 
Q 3188 -78 2472 -78 
Q 1731 -78 1267 223 
Q 803 525 561 1097 
Q 319 1669 319 2325 
Q 319 3041 592 3573 
Q 866 4106 1370 4382 
Q 1875 4659 2481 4659 
Q 3169 4659 3637 4309 
Q 4106 3959 4291 3325 
L 3694 3184 
Q 3534 3684 3231 3912 
Q 2928 4141 2469 4141 
Q 1941 4141 1586 3887 
Q 1231 3634 1087 3207 
Q 944 2781 944 2328 
Q 944 1744 1114 1308 
Q 1284 872 1643 656 
Q 2003 441 2422 441 
Q 2931 441 3284 734 
Q 3638 1028 3763 1606 
z
" transform="scale(0.015625)"/>
       <path id="ArialMT-61" d="M 2588 409 
Q 2275 144 1986 34 
Q 1697 -75 1366 -75 
Q 819 -75 525 192 
Q 231 459 231 875 
Q 231 1119 342 1320 
Q 453 1522 633 1644 
Q 813 1766 1038 1828 
Q 1203 1872 1538 1913 
Q 2219 1994 2541 2106 
Q 2544 2222 2544 2253 
Q 2544 2597 2384 2738 
Q 2169 2928 1744 2928 
Q 1347 2928 1158 2789 
Q 969 2650 878 2297 
L 328 2372 
Q 403 2725 575 2942 
Q 747 3159 1072 3276 
Q 1397 3394 1825 3394 
Q 2250 3394 2515 3294 
Q 2781 3194 2906 3042 
Q 3031 2891 3081 2659 
Q 3109 2516 3109 2141 
L 3109 1391 
Q 3109 606 3145 398 
Q 3181 191 3288 0 
L 2700 0 
Q 2613 175 2588 409 
z
M 2541 1666 
Q 2234 1541 1622 1453 
Q 1275 1403 1131 1340 
Q 988 1278 909 1158 
Q 831 1038 831 891 
Q 831 666 1001 516 
Q 1172 366 1500 366 
Q 1825 366 2078 508 
Q 2331 650 2450 897 
Q 2541 1088 2541 1459 
L 2541 1666 
z
" transform="scale(0.015625)"/>
       <path id="ArialMT-6e" d="M 422 0 
L 422 3319 
L 928 3319 
L 928 2847 
Q 1294 3394 1984 3394 
Q 2284 3394 2536 3286 
Q 2788 3178 2913 3003 
Q 3038 2828 3088 2588 
Q 3119 2431 3119 2041 
L 3119 0 
L 2556 0 
L 2556 2019 
Q 2556 2363 2490 2533 
Q 2425 2703 2258 2804 
Q 2091 2906 1866 2906 
Q 1506 2906 1245 2678 
Q 984 2450 984 1813 
L 984 0 
L 422 0 
z
" transform="scale(0.015625)"/>
       <path id="ArialMT-63" d="M 2588 1216 
L 3141 1144 
Q 3050 572 2676 248 
Q 2303 -75 1759 -75 
Q 1078 -75 664 370 
Q 250 816 250 1647 
Q 250 2184 428 2587 
Q 606 2991 970 3192 
Q 1334 3394 1763 3394 
Q 2303 3394 2647 3120 
Q 2991 2847 3088 2344 
L 2541 2259 
Q 2463 2594 2264 2762 
Q 2066 2931 1784 2931 
Q 1359 2931 1093 2626 
Q 828 2322 828 1663 
Q 828 994 1084 691 
Q 1341 388 1753 388 
Q 2084 388 2306 591 
Q 2528 794 2588 1216 
z
" transform="scale(0.015625)"/>
       <path id="ArialMT-6c" d="M 409 0 
L 409 4581 
L 972 4581 
L 972 0 
L 409 0 
z
" transform="scale(0.015625)"/>
      </defs>
      <use xlink:href="#ArialMT-23"/>
      <use xlink:href="#ArialMT-20" x="55.615234"/>
      <use xlink:href="#ArialMT-43" x="83.398438"/>
      <use xlink:href="#ArialMT-61" x="155.615234"/>
      <use xlink:href="#ArialMT-6e" x="211.230469"/>
      <use xlink:href="#ArialMT-63" x="266.845703"/>
      <use xlink:href="#ArialMT-65" x="316.845703"/>
      <use xlink:href="#ArialMT-72" x="372.460938"/>
      <use xlink:href="#ArialMT-20" x="405.761719"/>
      <use xlink:href="#ArialMT-43" x="433.544922"/>
      <use xlink:href="#ArialMT-65" x="505.761719"/>
      <use xlink:href="#ArialMT-6c" x="561.376953"/>
      <use xlink:href="#ArialMT-6c" x="583.59375"/>
      <use xlink:href="#ArialMT-73" x="605.810547"/>
      <use xlink:href="#ArialMT-20" x="655.810547"/>
     </g>
     <!--  -->
     <g style="fill: #262626" transform="translate(39.575 573.12)rotate(-90)scale(0.4 -0.4)"/>
    </g>
   </g>
   <g id="line2d_31">
    <path d="M 184.581818 968.465455 
L 186.065614 968.270943 
L 220.19292 968.270943 
L 221.676716 967.881919 
L 255.804022 967.881919 
L 257.287818 967.103871 
L 291.415124 967.103871 
L 292.89892 965.547776 
L 327.026226 965.547776 
L 328.510022 962.435585 
L 362.637328 962.435585 
L 364.121123 956.211204 
L 398.248429 956.211204 
L 399.732225 943.762442 
L 433.859531 943.762442 
L 435.343327 918.864918 
L 469.470633 918.864918 
L 470.954429 869.069869 
L 505.081735 869.069869 
L 506.565531 769.479772 
L 521.40349 769.479772 
L 522.887286 772.980986 
L 524.371082 773.564522 
L 525.854878 774.731593 
L 527.338674 774.731593 
L 528.82247 775.315129 
L 530.306266 778.038296 
L 531.790061 781.150486 
L 533.273857 785.040725 
L 534.757653 786.013284 
L 536.241449 787.569379 
L 537.725245 788.736451 
L 539.209041 789.319987 
L 540.692837 790.876082 
L 542.176633 614.259269 
L 543.660429 638.573257 
L 546.628021 652.578115 
L 548.111817 655.10677 
L 549.595612 660.164079 
L 551.079408 666.971996 
L 552.563204 671.251258 
L 554.047 676.50308 
L 555.530796 680.782341 
L 558.498388 688.562818 
L 559.982184 693.814639 
L 561.46598 700.428044 
L 562.949776 701.01158 
L 564.433572 703.151211 
L 565.917367 704.901818 
L 567.401163 705.290842 
L 568.884959 708.403033 
L 570.368755 714.821926 
L 571.852551 716.183509 
L 573.336347 717.35058 
L 574.820143 718.32314 
L 576.303939 718.517652 
L 577.787735 470.320456 
L 579.271531 515.252707 
L 580.755327 526.145374 
L 582.239122 535.676458 
L 583.722918 545.985589 
L 585.206714 551.431922 
L 586.69051 558.823375 
L 588.174306 564.853244 
L 589.658102 576.523958 
L 591.141898 585.082482 
L 592.625694 595.197102 
L 594.10949 608.034888 
L 595.593286 616.009876 
L 597.077082 621.456209 
L 601.528469 629.236686 
L 603.012265 633.515948 
L 604.496061 635.655579 
L 607.463653 639.156793 
L 608.947449 642.852519 
L 610.431245 648.298853 
L 611.915041 651.022019 
L 613.398837 339.608454 
L 614.882633 420.719919 
L 616.366428 446.784515 
L 617.850224 457.48267 
L 619.33402 469.153385 
L 620.817816 478.489956 
L 622.301612 485.881409 
L 623.785408 495.023469 
L 625.269204 506.694183 
L 626.753 511.751493 
L 628.236796 515.252707 
L 631.204388 522.838672 
L 632.688183 528.868541 
L 637.139571 549.486803 
L 638.623367 553.766065 
L 640.107163 559.212399 
L 641.590959 561.741053 
L 644.558551 568.743482 
L 646.042347 570.688601 
L 647.526143 571.272137 
L 649.009939 177.774545 
L 650.493734 271.140262 
L 651.97753 310.431667 
L 653.461326 334.356632 
L 654.945122 350.695632 
L 656.428918 357.503549 
L 657.912714 362.366347 
L 659.39651 369.563287 
L 660.880306 377.538276 
L 662.364102 387.847407 
L 663.847898 393.488252 
L 665.331694 400.296169 
L 666.815489 406.52055 
L 668.299285 419.358336 
L 669.783081 425.388205 
L 671.266877 794.76632 
L 683.137244 794.76632 
L 684.62104 789.70901 
L 686.104836 779.983415 
L 687.588632 766.562093 
L 689.072428 756.836498 
L 690.556224 745.749319 
L 692.04002 737.579819 
L 693.523816 727.854223 
L 695.007612 716.767045 
L 696.491408 709.570104 
L 697.975204 700.428044 
L 699.459 693.231104 
L 700.942795 682.921972 
L 702.426591 673.779913 
L 705.394183 656.857377 
L 706.877979 897.274096 
L 708.361775 897.274096 
L 717.26455 896.107024 
L 718.748346 895.718001 
L 720.232142 895.523489 
L 721.715938 894.939953 
L 723.199734 894.161905 
L 724.68353 893.57837 
L 726.167326 892.800322 
L 727.651122 891.049715 
L 729.134918 888.715572 
L 732.10251 883.074727 
L 733.586305 881.129608 
L 735.070101 879.962536 
L 736.553897 874.516203 
L 739.521489 868.875357 
L 741.005285 866.541214 
L 742.489081 935.009406 
L 743.972877 935.009406 
L 746.940469 934.620382 
L 748.424265 934.231359 
L 749.90806 933.258799 
L 752.875652 933.258799 
L 755.843244 932.480751 
L 757.32704 932.28624 
L 758.810836 930.924656 
L 760.294632 930.34112 
L 761.778428 930.34112 
L 763.262224 929.563073 
L 766.229816 927.617954 
L 767.713611 926.839906 
L 769.197407 926.25637 
L 770.681203 925.089299 
L 772.164999 922.949668 
L 773.648795 920.031989 
L 775.132591 919.448454 
L 776.616387 917.503334 
L 778.100183 958.156323 
L 784.035366 958.156323 
L 785.519162 957.961811 
L 789.97055 957.961811 
L 792.938142 957.183764 
L 794.421938 956.989252 
L 795.905734 956.989252 
L 797.38953 956.600228 
L 798.873326 955.627669 
L 800.357121 955.044133 
L 801.840917 954.655109 
L 804.808509 954.266085 
L 806.292305 954.266085 
L 807.776101 953.682549 
L 809.259897 953.488038 
L 810.743693 952.904502 
L 812.227489 952.515478 
L 813.711285 962.241073 
L 822.61406 962.241073 
L 824.097856 962.046562 
L 827.065448 962.046562 
L 831.516836 961.463026 
L 834.484427 960.684978 
L 835.968223 960.684978 
L 838.935815 960.295954 
L 840.419611 959.906931 
L 844.870999 959.906931 
L 846.354795 959.128883 
L 847.838591 958.545347 
L 849.322387 966.325824 
L 868.611733 966.325824 
L 871.579325 965.9368 
L 873.063121 965.9368 
L 876.030713 965.547776 
L 883.449693 965.547776 
L 884.933488 966.131312 
L 896.803856 966.131312 
L 898.287652 965.9368 
L 905.706631 965.9368 
L 907.190427 965.742288 
L 908.674223 965.742288 
L 910.158019 965.353264 
L 911.641815 965.353264 
L 913.125611 965.158752 
L 914.609407 965.158752 
L 916.093203 964.96424 
L 917.576999 964.96424 
L 919.060794 964.769728 
L 920.54459 965.353264 
L 927.96357 965.353264 
L 929.447366 965.158752 
L 930.931162 965.158752 
L 932.414958 964.96424 
L 933.898754 964.96424 
L 936.866345 964.575216 
L 939.833937 964.575216 
L 941.317733 964.380704 
L 945.769121 964.380704 
L 947.252917 964.186193 
L 948.736713 964.186193 
L 950.220509 963.991681 
L 951.704304 963.991681 
L 953.1881 963.797169 
L 954.671896 963.797169 
L 956.155692 967.881919 
L 970.993651 967.881919 
L 972.477447 967.687407 
L 975.445039 967.687407 
L 976.928835 967.492895 
L 984.347815 967.492895 
L 985.83161 967.298383 
L 990.282998 967.298383 
L 991.766794 967.881919 
L 996.218182 967.881919 
L 996.218182 967.881919 
" clip-path="url(#pa3ca4f73af)" style="fill: none; stroke: #ff0000; stroke-width: 1.5; stroke-linecap: round"/>
   </g>
   <g id="text_18">
    <!-- Cancer Cells after 547 hours -->
    <g style="fill: #262626" transform="translate(176.751172 68.6592)scale(0.65 -0.65)">
     <defs>
      <path id="ArialMT-66" d="M 556 0 
L 556 2881 
L 59 2881 
L 59 3319 
L 556 3319 
L 556 3672 
Q 556 4006 616 4169 
Q 697 4388 901 4523 
Q 1106 4659 1475 4659 
Q 1713 4659 2000 4603 
L 1916 4113 
Q 1741 4144 1584 4144 
Q 1328 4144 1222 4034 
Q 1116 3925 1116 3625 
L 1116 3319 
L 1763 3319 
L 1763 2881 
L 1116 2881 
L 1116 0 
L 556 0 
z
" transform="scale(0.015625)"/>
      <path id="ArialMT-74" d="M 1650 503 
L 1731 6 
Q 1494 -44 1306 -44 
Q 1000 -44 831 53 
Q 663 150 594 308 
Q 525 466 525 972 
L 525 2881 
L 113 2881 
L 113 3319 
L 525 3319 
L 525 4141 
L 1084 4478 
L 1084 3319 
L 1650 3319 
L 1650 2881 
L 1084 2881 
L 1084 941 
Q 1084 700 1114 631 
Q 1144 563 1211 522 
Q 1278 481 1403 481 
Q 1497 481 1650 503 
z
" transform="scale(0.015625)"/>
      <path id="ArialMT-37" d="M 303 3981 
L 303 4522 
L 3269 4522 
L 3269 4084 
Q 2831 3619 2401 2847 
Q 1972 2075 1738 1259 
Q 1569 684 1522 0 
L 944 0 
Q 953 541 1156 1306 
Q 1359 2072 1739 2783 
Q 2119 3494 2547 3981 
L 303 3981 
z
" transform="scale(0.015625)"/>
     </defs>
     <use xlink:href="#ArialMT-43"/>
     <use xlink:href="#ArialMT-61" x="72.216797"/>
     <use xlink:href="#ArialMT-6e" x="127.832031"/>
     <use xlink:href="#ArialMT-63" x="183.447266"/>
     <use xlink:href="#ArialMT-65" x="233.447266"/>
     <use xlink:href="#ArialMT-72" x="289.0625"/>
     <use xlink:href="#ArialMT-20" x="322.363281"/>
     <use xlink:href="#ArialMT-43" x="350.146484"/>
     <use xlink:href="#ArialMT-65" x="422.363281"/>
     <use xlink:href="#ArialMT-6c" x="477.978516"/>
     <use xlink:href="#ArialMT-6c" x="500.195312"/>
     <use xlink:href="#ArialMT-73" x="522.412109"/>
     <use xlink:href="#ArialMT-20" x="572.412109"/>
     <use xlink:href="#ArialMT-61" x="600.195312"/>
     <use xlink:href="#ArialMT-66" x="655.810547"/>
     <use xlink:href="#ArialMT-74" x="683.59375"/>
     <use xlink:href="#ArialMT-65" x="711.376953"/>
     <use xlink:href="#ArialMT-72" x="766.992188"/>
     <use xlink:href="#ArialMT-20" x="800.292969"/>
     <use xlink:href="#ArialMT-35" x="828.076172"/>
     <use xlink:href="#ArialMT-34" x="883.691406"/>
     <use xlink:href="#ArialMT-37" x="939.306641"/>
     <use xlink:href="#ArialMT-20" x="994.921875"/>
     <use xlink:href="#ArialMT-68" x="1022.705078"/>
     <use xlink:href="#ArialMT-6f" x="1078.320312"/>
     <use xlink:href="#ArialMT-75" x="1133.935547"/>
     <use xlink:href="#ArialMT-72" x="1189.550781"/>
     <use xlink:href="#ArialMT-73" x="1222.851562"/>
    </g>
   </g>
  </g>
 </g>
 <defs>
  <clipPath id="pa3ca4f73af">
   <rect x="144" y="138.24" width="892.8" height="869.76"/>
  </clipPath>
 </defs>
</svg>
