<?xml version="1.0" encoding="utf-8" standalone="no"?>
<!DOCTYPE svg PUBLIC "-//W3C//DTD SVG 1.1//EN"
  "http://www.w3.org/Graphics/SVG/1.1/DTD/svg11.dtd">
<svg xmlns:xlink="http://www.w3.org/1999/xlink" width="1152pt" height="1152pt" viewBox="0 0 1152 1152" xmlns="http://www.w3.org/2000/svg" version="1.1">
 <metadata>
  <rdf:RDF xmlns:dc="http://purl.org/dc/elements/1.1/" xmlns:cc="http://creativecommons.org/ns#" xmlns:rdf="http://www.w3.org/1999/02/22-rdf-syntax-ns#">
   <cc:Work>
    <dc:type rdf:resource="http://purl.org/dc/dcmitype/StillImage"/>
    <dc:date>2023-06-01T09:21:42.663889</dc:date>
    <dc:format>image/svg+xml</dc:format>
    <dc:creator>
     <cc:Agent>
      <dc:title>Matplotlib v3.5.3, https://matplotlib.org/</dc:title>
     </cc:Agent>
    </dc:creator>
   </cc:Work>
  </rdf:RDF>
 </metadata>
 <defs>
  <style type="text/css">*{stroke-linejoin: round; stroke-linecap: butt}</style>
 </defs>
 <g id="figure_1">
  <g id="patch_1">
   <path d="M 0 1152 
L 1152 1152 
L 1152 0 
L 0 0 
z
" style="fill: #ffffff"/>
  </g>
  <g id="axes_1">
   <g id="patch_2">
    <path d="M 144 1008 
L 1036.8 1008 
L 1036.8 138.24 
L 144 138.24 
z
" style="fill: #ffffff"/>
   </g>
   <g id="matplotlib.axis_1">
    <g id="xtick_1">
     <g id="line2d_1">
      <path d="M 184.581818 1008 
L 184.581818 138.24 
" clip-path="url(#pd6034483df)" style="fill: none; stroke: #cccccc; stroke-width: 0.8; stroke-linecap: round"/>
     </g>
     <g id="line2d_2"/>
     <g id="text_1">
      <!-- 0 -->
      <g style="fill: #262626" transform="translate(173.459943 1040.13125)scale(0.4 -0.4)">
       <defs>
        <path id="ArialMT-30" d="M 266 2259 
Q 266 3072 433 3567 
Q 600 4063 929 4331 
Q 1259 4600 1759 4600 
Q 2128 4600 2406 4451 
Q 2684 4303 2865 4023 
Q 3047 3744 3150 3342 
Q 3253 2941 3253 2259 
Q 3253 1453 3087 958 
Q 2922 463 2592 192 
Q 2263 -78 1759 -78 
Q 1097 -78 719 397 
Q 266 969 266 2259 
z
M 844 2259 
Q 844 1131 1108 757 
Q 1372 384 1759 384 
Q 2147 384 2411 759 
Q 2675 1134 2675 2259 
Q 2675 3391 2411 3762 
Q 2147 4134 1753 4134 
Q 1366 4134 1134 3806 
Q 844 3388 844 2259 
z
" transform="scale(0.015625)"/>
       </defs>
       <use xlink:href="#ArialMT-30"/>
      </g>
     </g>
    </g>
    <g id="xtick_2">
     <g id="line2d_3">
      <path d="M 332.961409 1008 
L 332.961409 138.24 
" clip-path="url(#pd6034483df)" style="fill: none; stroke: #cccccc; stroke-width: 0.8; stroke-linecap: round"/>
     </g>
     <g id="line2d_4"/>
     <g id="text_2">
      <!-- 100 -->
      <g style="fill: #262626" transform="translate(299.595784 1040.13125)scale(0.4 -0.4)">
       <defs>
        <path id="ArialMT-31" d="M 2384 0 
L 1822 0 
L 1822 3584 
Q 1619 3391 1289 3197 
Q 959 3003 697 2906 
L 697 3450 
Q 1169 3672 1522 3987 
Q 1875 4303 2022 4600 
L 2384 4600 
L 2384 0 
z
" transform="scale(0.015625)"/>
       </defs>
       <use xlink:href="#ArialMT-31"/>
       <use xlink:href="#ArialMT-30" x="55.615234"/>
       <use xlink:href="#ArialMT-30" x="111.230469"/>
      </g>
     </g>
    </g>
    <g id="xtick_3">
     <g id="line2d_5">
      <path d="M 481.341 1008 
L 481.341 138.24 
" clip-path="url(#pd6034483df)" style="fill: none; stroke: #cccccc; stroke-width: 0.8; stroke-linecap: round"/>
     </g>
     <g id="line2d_6"/>
     <g id="text_3">
      <!-- 200 -->
      <g style="fill: #262626" transform="translate(447.975375 1040.13125)scale(0.4 -0.4)">
       <defs>
        <path id="ArialMT-32" d="M 3222 541 
L 3222 0 
L 194 0 
Q 188 203 259 391 
Q 375 700 629 1000 
Q 884 1300 1366 1694 
Q 2113 2306 2375 2664 
Q 2638 3022 2638 3341 
Q 2638 3675 2398 3904 
Q 2159 4134 1775 4134 
Q 1369 4134 1125 3890 
Q 881 3647 878 3216 
L 300 3275 
Q 359 3922 746 4261 
Q 1134 4600 1788 4600 
Q 2447 4600 2831 4234 
Q 3216 3869 3216 3328 
Q 3216 3053 3103 2787 
Q 2991 2522 2730 2228 
Q 2469 1934 1863 1422 
Q 1356 997 1212 845 
Q 1069 694 975 541 
L 3222 541 
z
" transform="scale(0.015625)"/>
       </defs>
       <use xlink:href="#ArialMT-32"/>
       <use xlink:href="#ArialMT-30" x="55.615234"/>
       <use xlink:href="#ArialMT-30" x="111.230469"/>
      </g>
     </g>
    </g>
    <g id="xtick_4">
     <g id="line2d_7">
      <path d="M 629.720592 1008 
L 629.720592 138.24 
" clip-path="url(#pd6034483df)" style="fill: none; stroke: #cccccc; stroke-width: 0.8; stroke-linecap: round"/>
     </g>
     <g id="line2d_8"/>
     <g id="text_4">
      <!-- 300 -->
      <g style="fill: #262626" transform="translate(596.354967 1040.13125)scale(0.4 -0.4)">
       <defs>
        <path id="ArialMT-33" d="M 269 1209 
L 831 1284 
Q 928 806 1161 595 
Q 1394 384 1728 384 
Q 2125 384 2398 659 
Q 2672 934 2672 1341 
Q 2672 1728 2419 1979 
Q 2166 2231 1775 2231 
Q 1616 2231 1378 2169 
L 1441 2663 
Q 1497 2656 1531 2656 
Q 1891 2656 2178 2843 
Q 2466 3031 2466 3422 
Q 2466 3731 2256 3934 
Q 2047 4138 1716 4138 
Q 1388 4138 1169 3931 
Q 950 3725 888 3313 
L 325 3413 
Q 428 3978 793 4289 
Q 1159 4600 1703 4600 
Q 2078 4600 2393 4439 
Q 2709 4278 2876 4000 
Q 3044 3722 3044 3409 
Q 3044 3113 2884 2869 
Q 2725 2625 2413 2481 
Q 2819 2388 3044 2092 
Q 3269 1797 3269 1353 
Q 3269 753 2831 336 
Q 2394 -81 1725 -81 
Q 1122 -81 723 278 
Q 325 638 269 1209 
z
" transform="scale(0.015625)"/>
       </defs>
       <use xlink:href="#ArialMT-33"/>
       <use xlink:href="#ArialMT-30" x="55.615234"/>
       <use xlink:href="#ArialMT-30" x="111.230469"/>
      </g>
     </g>
    </g>
    <g id="xtick_5">
     <g id="line2d_9">
      <path d="M 778.100183 1008 
L 778.100183 138.24 
" clip-path="url(#pd6034483df)" style="fill: none; stroke: #cccccc; stroke-width: 0.8; stroke-linecap: round"/>
     </g>
     <g id="line2d_10"/>
     <g id="text_5">
      <!-- 400 -->
      <g style="fill: #262626" transform="translate(744.734558 1040.13125)scale(0.4 -0.4)">
       <defs>
        <path id="ArialMT-34" d="M 2069 0 
L 2069 1097 
L 81 1097 
L 81 1613 
L 2172 4581 
L 2631 4581 
L 2631 1613 
L 3250 1613 
L 3250 1097 
L 2631 1097 
L 2631 0 
L 2069 0 
z
M 2069 1613 
L 2069 3678 
L 634 1613 
L 2069 1613 
z
" transform="scale(0.015625)"/>
       </defs>
       <use xlink:href="#ArialMT-34"/>
       <use xlink:href="#ArialMT-30" x="55.615234"/>
       <use xlink:href="#ArialMT-30" x="111.230469"/>
      </g>
     </g>
    </g>
    <g id="xtick_6">
     <g id="line2d_11">
      <path d="M 926.479774 1008 
L 926.479774 138.24 
" clip-path="url(#pd6034483df)" style="fill: none; stroke: #cccccc; stroke-width: 0.8; stroke-linecap: round"/>
     </g>
     <g id="line2d_12"/>
     <g id="text_6">
      <!-- 500 -->
      <g style="fill: #262626" transform="translate(893.114149 1040.13125)scale(0.4 -0.4)">
       <defs>
        <path id="ArialMT-35" d="M 266 1200 
L 856 1250 
Q 922 819 1161 601 
Q 1400 384 1738 384 
Q 2144 384 2425 690 
Q 2706 997 2706 1503 
Q 2706 1984 2436 2262 
Q 2166 2541 1728 2541 
Q 1456 2541 1237 2417 
Q 1019 2294 894 2097 
L 366 2166 
L 809 4519 
L 3088 4519 
L 3088 3981 
L 1259 3981 
L 1013 2750 
Q 1425 3038 1878 3038 
Q 2478 3038 2890 2622 
Q 3303 2206 3303 1553 
Q 3303 931 2941 478 
Q 2500 -78 1738 -78 
Q 1113 -78 717 272 
Q 322 622 266 1200 
z
" transform="scale(0.015625)"/>
       </defs>
       <use xlink:href="#ArialMT-35"/>
       <use xlink:href="#ArialMT-30" x="55.615234"/>
       <use xlink:href="#ArialMT-30" x="111.230469"/>
      </g>
     </g>
    </g>
    <g id="text_7">
     <!--  -->
     <g style="fill: #262626" transform="translate(590.4 1080.7125)scale(0.4 -0.4)"/>
     <!--  Time [hours] -->
     <g style="fill: #262626" transform="translate(474.809375 1123.02)scale(0.4 -0.4)">
      <defs>
       <path id="ArialMT-20" transform="scale(0.015625)"/>
       <path id="ArialMT-54" d="M 1659 0 
L 1659 4041 
L 150 4041 
L 150 4581 
L 3781 4581 
L 3781 4041 
L 2266 4041 
L 2266 0 
L 1659 0 
z
" transform="scale(0.015625)"/>
       <path id="ArialMT-69" d="M 425 3934 
L 425 4581 
L 988 4581 
L 988 3934 
L 425 3934 
z
M 425 0 
L 425 3319 
L 988 3319 
L 988 0 
L 425 0 
z
" transform="scale(0.015625)"/>
       <path id="ArialMT-6d" d="M 422 0 
L 422 3319 
L 925 3319 
L 925 2853 
Q 1081 3097 1340 3245 
Q 1600 3394 1931 3394 
Q 2300 3394 2536 3241 
Q 2772 3088 2869 2813 
Q 3263 3394 3894 3394 
Q 4388 3394 4653 3120 
Q 4919 2847 4919 2278 
L 4919 0 
L 4359 0 
L 4359 2091 
Q 4359 2428 4304 2576 
Q 4250 2725 4106 2815 
Q 3963 2906 3769 2906 
Q 3419 2906 3187 2673 
Q 2956 2441 2956 1928 
L 2956 0 
L 2394 0 
L 2394 2156 
Q 2394 2531 2256 2718 
Q 2119 2906 1806 2906 
Q 1569 2906 1367 2781 
Q 1166 2656 1075 2415 
Q 984 2175 984 1722 
L 984 0 
L 422 0 
z
" transform="scale(0.015625)"/>
       <path id="ArialMT-65" d="M 2694 1069 
L 3275 997 
Q 3138 488 2766 206 
Q 2394 -75 1816 -75 
Q 1088 -75 661 373 
Q 234 822 234 1631 
Q 234 2469 665 2931 
Q 1097 3394 1784 3394 
Q 2450 3394 2872 2941 
Q 3294 2488 3294 1666 
Q 3294 1616 3291 1516 
L 816 1516 
Q 847 969 1125 678 
Q 1403 388 1819 388 
Q 2128 388 2347 550 
Q 2566 713 2694 1069 
z
M 847 1978 
L 2700 1978 
Q 2663 2397 2488 2606 
Q 2219 2931 1791 2931 
Q 1403 2931 1139 2672 
Q 875 2413 847 1978 
z
" transform="scale(0.015625)"/>
       <path id="ArialMT-5b" d="M 434 -1272 
L 434 4581 
L 1675 4581 
L 1675 4116 
L 997 4116 
L 997 -806 
L 1675 -806 
L 1675 -1272 
L 434 -1272 
z
" transform="scale(0.015625)"/>
       <path id="ArialMT-68" d="M 422 0 
L 422 4581 
L 984 4581 
L 984 2938 
Q 1378 3394 1978 3394 
Q 2347 3394 2619 3248 
Q 2891 3103 3008 2847 
Q 3125 2591 3125 2103 
L 3125 0 
L 2563 0 
L 2563 2103 
Q 2563 2525 2380 2717 
Q 2197 2909 1863 2909 
Q 1613 2909 1392 2779 
Q 1172 2650 1078 2428 
Q 984 2206 984 1816 
L 984 0 
L 422 0 
z
" transform="scale(0.015625)"/>
       <path id="ArialMT-6f" d="M 213 1659 
Q 213 2581 725 3025 
Q 1153 3394 1769 3394 
Q 2453 3394 2887 2945 
Q 3322 2497 3322 1706 
Q 3322 1066 3130 698 
Q 2938 331 2570 128 
Q 2203 -75 1769 -75 
Q 1072 -75 642 372 
Q 213 819 213 1659 
z
M 791 1659 
Q 791 1022 1069 705 
Q 1347 388 1769 388 
Q 2188 388 2466 706 
Q 2744 1025 2744 1678 
Q 2744 2294 2464 2611 
Q 2184 2928 1769 2928 
Q 1347 2928 1069 2612 
Q 791 2297 791 1659 
z
" transform="scale(0.015625)"/>
       <path id="ArialMT-75" d="M 2597 0 
L 2597 488 
Q 2209 -75 1544 -75 
Q 1250 -75 995 37 
Q 741 150 617 320 
Q 494 491 444 738 
Q 409 903 409 1263 
L 409 3319 
L 972 3319 
L 972 1478 
Q 972 1038 1006 884 
Q 1059 663 1231 536 
Q 1403 409 1656 409 
Q 1909 409 2131 539 
Q 2353 669 2445 892 
Q 2538 1116 2538 1541 
L 2538 3319 
L 3100 3319 
L 3100 0 
L 2597 0 
z
" transform="scale(0.015625)"/>
       <path id="ArialMT-72" d="M 416 0 
L 416 3319 
L 922 3319 
L 922 2816 
Q 1116 3169 1280 3281 
Q 1444 3394 1641 3394 
Q 1925 3394 2219 3213 
L 2025 2691 
Q 1819 2813 1613 2813 
Q 1428 2813 1281 2702 
Q 1134 2591 1072 2394 
Q 978 2094 978 1738 
L 978 0 
L 416 0 
z
" transform="scale(0.015625)"/>
       <path id="ArialMT-73" d="M 197 991 
L 753 1078 
Q 800 744 1014 566 
Q 1228 388 1613 388 
Q 2000 388 2187 545 
Q 2375 703 2375 916 
Q 2375 1106 2209 1216 
Q 2094 1291 1634 1406 
Q 1016 1563 777 1677 
Q 538 1791 414 1992 
Q 291 2194 291 2438 
Q 291 2659 392 2848 
Q 494 3038 669 3163 
Q 800 3259 1026 3326 
Q 1253 3394 1513 3394 
Q 1903 3394 2198 3281 
Q 2494 3169 2634 2976 
Q 2775 2784 2828 2463 
L 2278 2388 
Q 2241 2644 2061 2787 
Q 1881 2931 1553 2931 
Q 1166 2931 1000 2803 
Q 834 2675 834 2503 
Q 834 2394 903 2306 
Q 972 2216 1119 2156 
Q 1203 2125 1616 2013 
Q 2213 1853 2448 1751 
Q 2684 1650 2818 1456 
Q 2953 1263 2953 975 
Q 2953 694 2789 445 
Q 2625 197 2315 61 
Q 2006 -75 1616 -75 
Q 969 -75 630 194 
Q 291 463 197 991 
z
" transform="scale(0.015625)"/>
       <path id="ArialMT-5d" d="M 1363 -1272 
L 122 -1272 
L 122 -806 
L 800 -806 
L 800 4116 
L 122 4116 
L 122 4581 
L 1363 4581 
L 1363 -1272 
z
" transform="scale(0.015625)"/>
      </defs>
      <use xlink:href="#ArialMT-20"/>
      <use xlink:href="#ArialMT-54" x="26.033203"/>
      <use xlink:href="#ArialMT-69" x="83.367188"/>
      <use xlink:href="#ArialMT-6d" x="105.583984"/>
      <use xlink:href="#ArialMT-65" x="188.884766"/>
      <use xlink:href="#ArialMT-20" x="244.5"/>
      <use xlink:href="#ArialMT-5b" x="272.283203"/>
      <use xlink:href="#ArialMT-68" x="300.066406"/>
      <use xlink:href="#ArialMT-6f" x="355.681641"/>
      <use xlink:href="#ArialMT-75" x="411.296875"/>
      <use xlink:href="#ArialMT-72" x="466.912109"/>
      <use xlink:href="#ArialMT-73" x="500.212891"/>
      <use xlink:href="#ArialMT-5d" x="550.212891"/>
     </g>
    </g>
   </g>
   <g id="matplotlib.axis_2">
    <g id="ytick_1">
     <g id="line2d_13">
      <path d="M 144 982.598218 
L 1036.8 982.598218 
" clip-path="url(#pd6034483df)" style="fill: none; stroke: #cccccc; stroke-width: 0.8; stroke-linecap: round"/>
     </g>
     <g id="line2d_14"/>
     <g id="text_8">
      <!-- 1000 -->
      <g style="fill: #262626" transform="translate(51.525 996.913843)scale(0.4 -0.4)">
       <use xlink:href="#ArialMT-31"/>
       <use xlink:href="#ArialMT-30" x="55.615234"/>
       <use xlink:href="#ArialMT-30" x="111.230469"/>
       <use xlink:href="#ArialMT-30" x="166.845703"/>
      </g>
     </g>
    </g>
    <g id="ytick_2">
     <g id="line2d_15">
      <path d="M 144 858.626611 
L 1036.8 858.626611 
" clip-path="url(#pd6034483df)" style="fill: none; stroke: #cccccc; stroke-width: 0.8; stroke-linecap: round"/>
     </g>
     <g id="line2d_16"/>
     <g id="text_9">
      <!-- 1500 -->
      <g style="fill: #262626" transform="translate(51.525 872.942236)scale(0.4 -0.4)">
       <use xlink:href="#ArialMT-31"/>
       <use xlink:href="#ArialMT-35" x="55.615234"/>
       <use xlink:href="#ArialMT-30" x="111.230469"/>
       <use xlink:href="#ArialMT-30" x="166.845703"/>
      </g>
     </g>
    </g>
    <g id="ytick_3">
     <g id="line2d_17">
      <path d="M 144 734.655004 
L 1036.8 734.655004 
" clip-path="url(#pd6034483df)" style="fill: none; stroke: #cccccc; stroke-width: 0.8; stroke-linecap: round"/>
     </g>
     <g id="line2d_18"/>
     <g id="text_10">
      <!-- 2000 -->
      <g style="fill: #262626" transform="translate(51.525 748.970629)scale(0.4 -0.4)">
       <use xlink:href="#ArialMT-32"/>
       <use xlink:href="#ArialMT-30" x="55.615234"/>
       <use xlink:href="#ArialMT-30" x="111.230469"/>
       <use xlink:href="#ArialMT-30" x="166.845703"/>
      </g>
     </g>
    </g>
    <g id="ytick_4">
     <g id="line2d_19">
      <path d="M 144 610.683397 
L 1036.8 610.683397 
" clip-path="url(#pd6034483df)" style="fill: none; stroke: #cccccc; stroke-width: 0.8; stroke-linecap: round"/>
     </g>
     <g id="line2d_20"/>
     <g id="text_11">
      <!-- 2500 -->
      <g style="fill: #262626" transform="translate(51.525 624.999022)scale(0.4 -0.4)">
       <use xlink:href="#ArialMT-32"/>
       <use xlink:href="#ArialMT-35" x="55.615234"/>
       <use xlink:href="#ArialMT-30" x="111.230469"/>
       <use xlink:href="#ArialMT-30" x="166.845703"/>
      </g>
     </g>
    </g>
    <g id="ytick_5">
     <g id="line2d_21">
      <path d="M 144 486.71179 
L 1036.8 486.71179 
" clip-path="url(#pd6034483df)" style="fill: none; stroke: #cccccc; stroke-width: 0.8; stroke-linecap: round"/>
     </g>
     <g id="line2d_22"/>
     <g id="text_12">
      <!-- 3000 -->
      <g style="fill: #262626" transform="translate(51.525 501.027415)scale(0.4 -0.4)">
       <use xlink:href="#ArialMT-33"/>
       <use xlink:href="#ArialMT-30" x="55.615234"/>
       <use xlink:href="#ArialMT-30" x="111.230469"/>
       <use xlink:href="#ArialMT-30" x="166.845703"/>
      </g>
     </g>
    </g>
    <g id="ytick_6">
     <g id="line2d_23">
      <path d="M 144 362.740183 
L 1036.8 362.740183 
" clip-path="url(#pd6034483df)" style="fill: none; stroke: #cccccc; stroke-width: 0.8; stroke-linecap: round"/>
     </g>
     <g id="line2d_24"/>
     <g id="text_13">
      <!-- 3500 -->
      <g style="fill: #262626" transform="translate(51.525 377.055808)scale(0.4 -0.4)">
       <use xlink:href="#ArialMT-33"/>
       <use xlink:href="#ArialMT-35" x="55.615234"/>
       <use xlink:href="#ArialMT-30" x="111.230469"/>
       <use xlink:href="#ArialMT-30" x="166.845703"/>
      </g>
     </g>
    </g>
    <g id="ytick_7">
     <g id="line2d_25">
      <path d="M 144 238.768576 
L 1036.8 238.768576 
" clip-path="url(#pd6034483df)" style="fill: none; stroke: #cccccc; stroke-width: 0.8; stroke-linecap: round"/>
     </g>
     <g id="line2d_26"/>
     <g id="text_14">
      <!-- 4000 -->
      <g style="fill: #262626" transform="translate(51.525 253.084201)scale(0.4 -0.4)">
       <use xlink:href="#ArialMT-34"/>
       <use xlink:href="#ArialMT-30" x="55.615234"/>
       <use xlink:href="#ArialMT-30" x="111.230469"/>
       <use xlink:href="#ArialMT-30" x="166.845703"/>
      </g>
     </g>
    </g>
    <g id="text_15">
     <!-- # Healthy Cells  -->
     <g style="fill: #262626" transform="translate(-3.20125 713.173125)rotate(-90)scale(0.4 -0.4)">
      <defs>
       <path id="ArialMT-23" d="M 322 -78 
L 594 1253 
L 66 1253 
L 66 1719 
L 688 1719 
L 919 2853 
L 66 2853 
L 66 3319 
L 1013 3319 
L 1284 4659 
L 1753 4659 
L 1481 3319 
L 2466 3319 
L 2738 4659 
L 3209 4659 
L 2938 3319 
L 3478 3319 
L 3478 2853 
L 2844 2853 
L 2609 1719 
L 3478 1719 
L 3478 1253 
L 2516 1253 
L 2244 -78 
L 1775 -78 
L 2044 1253 
L 1063 1253 
L 791 -78 
L 322 -78 
z
M 1156 1719 
L 2138 1719 
L 2372 2853 
L 1388 2853 
L 1156 1719 
z
" transform="scale(0.015625)"/>
       <path id="ArialMT-48" d="M 513 0 
L 513 4581 
L 1119 4581 
L 1119 2700 
L 3500 2700 
L 3500 4581 
L 4106 4581 
L 4106 0 
L 3500 0 
L 3500 2159 
L 1119 2159 
L 1119 0 
L 513 0 
z
" transform="scale(0.015625)"/>
       <path id="ArialMT-61" d="M 2588 409 
Q 2275 144 1986 34 
Q 1697 -75 1366 -75 
Q 819 -75 525 192 
Q 231 459 231 875 
Q 231 1119 342 1320 
Q 453 1522 633 1644 
Q 813 1766 1038 1828 
Q 1203 1872 1538 1913 
Q 2219 1994 2541 2106 
Q 2544 2222 2544 2253 
Q 2544 2597 2384 2738 
Q 2169 2928 1744 2928 
Q 1347 2928 1158 2789 
Q 969 2650 878 2297 
L 328 2372 
Q 403 2725 575 2942 
Q 747 3159 1072 3276 
Q 1397 3394 1825 3394 
Q 2250 3394 2515 3294 
Q 2781 3194 2906 3042 
Q 3031 2891 3081 2659 
Q 3109 2516 3109 2141 
L 3109 1391 
Q 3109 606 3145 398 
Q 3181 191 3288 0 
L 2700 0 
Q 2613 175 2588 409 
z
M 2541 1666 
Q 2234 1541 1622 1453 
Q 1275 1403 1131 1340 
Q 988 1278 909 1158 
Q 831 1038 831 891 
Q 831 666 1001 516 
Q 1172 366 1500 366 
Q 1825 366 2078 508 
Q 2331 650 2450 897 
Q 2541 1088 2541 1459 
L 2541 1666 
z
" transform="scale(0.015625)"/>
       <path id="ArialMT-6c" d="M 409 0 
L 409 4581 
L 972 4581 
L 972 0 
L 409 0 
z
" transform="scale(0.015625)"/>
       <path id="ArialMT-74" d="M 1650 503 
L 1731 6 
Q 1494 -44 1306 -44 
Q 1000 -44 831 53 
Q 663 150 594 308 
Q 525 466 525 972 
L 525 2881 
L 113 2881 
L 113 3319 
L 525 3319 
L 525 4141 
L 1084 4478 
L 1084 3319 
L 1650 3319 
L 1650 2881 
L 1084 2881 
L 1084 941 
Q 1084 700 1114 631 
Q 1144 563 1211 522 
Q 1278 481 1403 481 
Q 1497 481 1650 503 
z
" transform="scale(0.015625)"/>
       <path id="ArialMT-79" d="M 397 -1278 
L 334 -750 
Q 519 -800 656 -800 
Q 844 -800 956 -737 
Q 1069 -675 1141 -563 
Q 1194 -478 1313 -144 
Q 1328 -97 1363 -6 
L 103 3319 
L 709 3319 
L 1400 1397 
Q 1534 1031 1641 628 
Q 1738 1016 1872 1384 
L 2581 3319 
L 3144 3319 
L 1881 -56 
Q 1678 -603 1566 -809 
Q 1416 -1088 1222 -1217 
Q 1028 -1347 759 -1347 
Q 597 -1347 397 -1278 
z
" transform="scale(0.015625)"/>
       <path id="ArialMT-43" d="M 3763 1606 
L 4369 1453 
Q 4178 706 3683 314 
Q 3188 -78 2472 -78 
Q 1731 -78 1267 223 
Q 803 525 561 1097 
Q 319 1669 319 2325 
Q 319 3041 592 3573 
Q 866 4106 1370 4382 
Q 1875 4659 2481 4659 
Q 3169 4659 3637 4309 
Q 4106 3959 4291 3325 
L 3694 3184 
Q 3534 3684 3231 3912 
Q 2928 4141 2469 4141 
Q 1941 4141 1586 3887 
Q 1231 3634 1087 3207 
Q 944 2781 944 2328 
Q 944 1744 1114 1308 
Q 1284 872 1643 656 
Q 2003 441 2422 441 
Q 2931 441 3284 734 
Q 3638 1028 3763 1606 
z
" transform="scale(0.015625)"/>
      </defs>
      <use xlink:href="#ArialMT-23"/>
      <use xlink:href="#ArialMT-20" x="55.615234"/>
      <use xlink:href="#ArialMT-48" x="83.398438"/>
      <use xlink:href="#ArialMT-65" x="155.615234"/>
      <use xlink:href="#ArialMT-61" x="211.230469"/>
      <use xlink:href="#ArialMT-6c" x="266.845703"/>
      <use xlink:href="#ArialMT-74" x="289.0625"/>
      <use xlink:href="#ArialMT-68" x="316.845703"/>
      <use xlink:href="#ArialMT-79" x="372.460938"/>
      <use xlink:href="#ArialMT-20" x="422.460938"/>
      <use xlink:href="#ArialMT-43" x="450.244141"/>
      <use xlink:href="#ArialMT-65" x="522.460938"/>
      <use xlink:href="#ArialMT-6c" x="578.076172"/>
      <use xlink:href="#ArialMT-6c" x="600.292969"/>
      <use xlink:href="#ArialMT-73" x="622.509766"/>
      <use xlink:href="#ArialMT-20" x="672.509766"/>
     </g>
     <!--  -->
     <g style="fill: #262626" transform="translate(39.575 573.12)rotate(-90)scale(0.4 -0.4)"/>
    </g>
   </g>
   <g id="line2d_27">
    <path d="M 184.581818 968.465455 
L 186.065614 916.645323 
L 190.517002 916.645323 
L 192.000798 861.106043 
L 196.452185 861.106043 
L 197.935981 861.353986 
L 202.387369 861.353986 
L 203.871165 810.277684 
L 206.838757 811.765343 
L 208.322553 812.26123 
L 209.806349 814.244776 
L 212.773941 815.732435 
L 214.257736 816.724208 
L 215.741532 817.220094 
L 217.225328 817.468037 
L 218.709124 817.468037 
L 220.19292 789.946341 
L 221.676716 730.192026 
L 223.160512 702.918272 
L 226.128104 702.918272 
L 227.6119 670.189768 
L 229.095696 628.783252 
L 230.579491 624.568217 
L 232.063287 623.576444 
L 233.547083 621.097012 
L 235.030879 617.377864 
L 236.514675 611.923113 
L 237.998471 605.724533 
L 240.966063 527.374477 
L 242.449859 523.159442 
L 245.417451 516.712919 
L 246.901246 511.754055 
L 248.385042 509.274622 
L 249.868838 504.811645 
L 251.352634 502.580156 
L 252.83643 499.85278 
L 254.320226 495.885689 
L 255.804022 484.728244 
L 257.287818 449.024421 
L 258.771614 399.683722 
L 260.25541 385.798902 
L 261.739206 383.567413 
L 263.223001 376.625003 
L 264.706797 351.830682 
L 266.190593 337.449975 
L 267.674389 331.995224 
L 269.158185 328.771963 
L 272.125777 319.598064 
L 273.609573 313.89537 
L 275.093369 303.977641 
L 276.577165 276.703888 
L 278.060961 265.2985 
L 279.544757 262.075238 
L 281.028552 259.347863 
L 282.512348 255.628715 
L 285.47994 252.653396 
L 286.963736 249.926021 
L 288.447532 247.942475 
L 289.931328 246.702759 
L 291.415124 245.710986 
L 292.89892 241.743895 
L 295.866512 227.611131 
L 297.350307 226.619359 
L 298.834103 224.38787 
L 300.317899 221.660494 
L 301.801695 218.437233 
L 303.285491 216.205744 
L 304.769287 215.213971 
L 306.253083 212.982482 
L 307.736879 210.998936 
L 309.220675 209.263334 
L 310.704471 208.023618 
L 312.188267 206.535958 
L 313.672062 205.792129 
L 315.155858 204.552413 
L 316.639654 205.048299 
L 319.607246 204.056526 
L 321.091042 204.304469 
L 322.574838 204.304469 
L 324.058634 204.056526 
L 325.54243 203.312696 
L 327.026226 202.81681 
L 329.993818 202.320924 
L 331.477613 201.825037 
L 332.961409 200.337378 
L 334.445205 199.593548 
L 335.929001 198.353832 
L 337.412797 197.362059 
L 340.380389 194.882627 
L 341.864185 194.882627 
L 343.347981 193.890854 
L 344.831777 192.155252 
L 346.315573 191.411422 
L 349.283164 190.915536 
L 350.76696 189.923763 
L 355.218348 189.179933 
L 356.702144 189.179933 
L 358.18594 189.427877 
L 359.669736 188.93199 
L 361.153532 188.18816 
L 362.637328 188.18816 
L 365.604919 187.692274 
L 367.088715 187.692274 
L 368.572511 186.700501 
L 370.056307 185.956672 
L 371.540103 185.956672 
L 373.023899 185.460785 
L 374.507695 185.212842 
L 375.991491 183.725183 
L 377.475287 183.477239 
L 378.959083 183.477239 
L 380.442879 183.229296 
L 383.41047 183.229296 
L 384.894266 183.477239 
L 389.345654 182.73341 
L 392.313246 182.73341 
L 393.797042 182.485467 
L 395.280838 182.485467 
L 396.764634 181.741637 
L 399.732225 181.741637 
L 401.216021 181.493694 
L 402.699817 181.493694 
L 404.183613 181.24575 
L 407.151205 181.24575 
L 408.635001 180.997807 
L 411.602593 180.997807 
L 413.086389 181.24575 
L 423.47296 181.24575 
L 424.956756 180.997807 
L 429.408144 180.997807 
L 432.375735 180.501921 
L 436.827123 180.501921 
L 438.310919 180.253978 
L 444.246103 180.253978 
L 447.213695 179.758091 
L 450.181286 179.758091 
L 451.665082 179.510148 
L 453.148878 179.510148 
L 454.632674 179.262205 
L 466.503041 179.262205 
L 467.986837 179.014262 
L 485.792388 179.014262 
L 487.276184 178.518375 
L 488.75998 178.518375 
L 490.243776 178.270432 
L 522.887286 178.270432 
L 524.371082 177.774545 
L 527.338674 177.774545 
L 528.82247 178.270432 
L 530.306266 178.518375 
L 531.790061 178.518375 
L 533.273857 178.766318 
L 542.176633 178.766318 
L 543.660429 179.262205 
L 545.144225 179.510148 
L 548.111817 179.510148 
L 549.595612 180.253978 
L 551.079408 180.501921 
L 552.563204 180.501921 
L 554.047 181.24575 
L 555.530796 181.741637 
L 557.014592 181.741637 
L 558.498388 182.485467 
L 559.982184 182.485467 
L 561.46598 182.73341 
L 567.401163 182.73341 
L 568.884959 182.981353 
L 574.820143 182.981353 
L 576.303939 183.229296 
L 577.787735 182.981353 
L 579.271531 183.229296 
L 580.755327 182.981353 
L 582.239122 183.477239 
L 583.722918 183.725183 
L 585.206714 183.725183 
L 588.174306 184.221069 
L 591.141898 185.212842 
L 592.625694 186.204615 
L 594.10949 186.948444 
L 595.593286 187.444331 
L 598.560878 187.444331 
L 600.044673 187.196388 
L 603.012265 187.196388 
L 604.496061 187.444331 
L 605.979857 187.444331 
L 607.463653 187.692274 
L 608.947449 187.692274 
L 610.431245 188.684047 
L 611.915041 188.436104 
L 613.398837 188.436104 
L 614.882633 189.179933 
L 616.366428 189.427877 
L 619.33402 190.419649 
L 620.817816 190.419649 
L 622.301612 191.163479 
L 623.785408 192.155252 
L 626.753 192.155252 
L 628.236796 191.907309 
L 629.720592 191.907309 
L 631.204388 192.155252 
L 634.171979 192.155252 
L 637.139571 192.651138 
L 638.623367 192.651138 
L 644.558551 193.642911 
L 646.042347 193.642911 
L 647.526143 193.394968 
L 649.009939 194.138798 
L 650.493734 195.626457 
L 651.97753 197.362059 
L 653.461326 199.345605 
L 654.945122 199.345605 
L 656.428918 198.849719 
L 659.39651 198.849719 
L 660.880306 199.345605 
L 662.364102 199.593548 
L 663.847898 200.089435 
L 666.815489 200.089435 
L 669.783081 201.577094 
L 671.266877 325.796644 
L 672.750673 326.044587 
L 680.169653 326.044587 
L 683.137244 325.548701 
L 689.072428 325.548701 
L 690.556224 325.796644 
L 693.523816 325.300758 
L 705.394183 325.300758 
L 706.877979 415.552088 
L 708.361775 413.072655 
L 709.845571 410.34528 
L 711.329367 407.865848 
L 717.26455 398.939892 
L 720.232142 395.468687 
L 721.715938 393.237198 
L 723.199734 390.509823 
L 726.167326 385.550959 
L 727.651122 383.31947 
L 729.134918 381.583867 
L 732.10251 379.600322 
L 733.586305 376.625003 
L 735.070101 375.137344 
L 736.553897 373.897628 
L 738.037693 371.666139 
L 739.521489 371.666139 
L 741.005285 370.674366 
L 742.489081 412.824712 
L 749.90806 397.948119 
L 751.391856 395.71663 
L 754.359448 388.77422 
L 755.843244 386.542732 
L 757.32704 383.815356 
L 758.810836 380.344151 
L 760.294632 375.63323 
L 761.778428 371.666139 
L 763.262224 367.203161 
L 764.74602 364.723729 
L 766.229816 363.236069 
L 767.713611 361.004581 
L 769.197407 358.029262 
L 770.681203 356.045716 
L 772.164999 353.070398 
L 773.648795 351.334795 
L 776.616387 346.375931 
L 778.100183 389.765993 
L 779.583979 387.782448 
L 785.519162 380.840038 
L 787.002958 379.352378 
L 788.486754 377.368833 
L 789.97055 374.8894 
L 791.454346 373.153798 
L 792.938142 371.666139 
L 794.421938 369.186707 
L 795.905734 367.203161 
L 797.38953 365.467558 
L 798.873326 363.979899 
L 801.840917 357.285432 
L 803.324713 355.053943 
L 804.808509 353.814227 
L 806.292305 352.326568 
L 807.776101 350.343022 
L 809.259897 347.119761 
L 810.743693 345.136215 
L 812.227489 342.904726 
L 813.711285 381.83181 
L 815.195081 378.112662 
L 816.678877 376.129117 
L 818.162672 373.897628 
L 819.646468 371.418196 
L 821.130264 369.186707 
L 824.097856 365.715502 
L 825.581652 364.475786 
L 828.549244 361.004581 
L 830.03304 358.773092 
L 831.516836 357.533376 
L 833.000632 355.797773 
L 834.484427 354.310114 
L 835.968223 352.574511 
L 837.452019 350.343022 
L 838.935815 349.599193 
L 840.419611 347.367704 
L 841.903407 346.127988 
L 844.870999 344.144442 
L 846.354795 343.400612 
L 847.838591 341.417067 
L 849.322387 407.865848 
L 850.806182 406.130245 
L 852.289978 405.634359 
L 853.773774 404.890529 
L 856.741366 403.898757 
L 858.225162 402.906984 
L 859.708958 402.163154 
L 861.192754 400.179608 
L 862.67655 399.187835 
L 864.160346 397.948119 
L 865.644142 396.46046 
L 867.127938 394.724858 
L 868.611733 392.741312 
L 870.095529 391.005709 
L 871.579325 389.51805 
L 873.063121 388.77422 
L 874.546917 387.286561 
L 876.030713 386.790675 
L 877.514509 384.807129 
L 878.998305 383.815356 
L 880.482101 383.31947 
L 881.965897 382.57564 
L 883.449693 381.335924 
L 884.933488 391.501596 
L 886.417284 389.51805 
L 887.90108 386.790675 
L 889.384876 384.311243 
L 890.868672 381.335924 
L 892.352468 379.104435 
L 893.836264 376.625003 
L 895.32006 373.897628 
L 896.803856 371.418196 
L 898.287652 369.186707 
L 899.771448 367.699047 
L 901.255243 364.971672 
L 902.739039 362.740183 
L 904.222835 360.260751 
L 905.706631 358.277205 
L 907.190427 354.558057 
L 908.674223 351.830682 
L 910.158019 348.855363 
L 911.641815 346.375931 
L 913.125611 344.640328 
L 914.609407 343.152669 
L 916.093203 339.929407 
L 917.576999 338.689691 
L 919.060794 337.697918 
L 920.54459 340.673237 
L 922.028386 337.202032 
L 923.512182 334.226713 
L 924.995978 332.491111 
L 926.479774 329.267849 
L 927.96357 328.028133 
L 929.447366 325.796644 
L 930.931162 324.308985 
L 932.414958 321.829553 
L 933.898754 320.589837 
L 935.382549 318.854234 
L 936.866345 317.614518 
L 938.350141 316.126859 
L 939.833937 313.647427 
L 941.317733 311.663881 
L 942.801529 308.440619 
L 944.285325 304.225585 
L 945.769121 302.242039 
L 948.736713 297.283175 
L 950.220509 296.043458 
L 951.704304 294.307856 
L 953.1881 293.06814 
L 954.671896 291.332537 
L 956.155692 324.804871 
L 957.639488 321.829553 
L 959.123284 319.350121 
L 960.60708 317.614518 
L 962.090876 315.630972 
L 963.574672 313.89537 
L 965.058468 311.415938 
L 966.542264 309.680335 
L 968.026059 308.192676 
L 969.509855 306.457073 
L 972.477447 301.994096 
L 973.961243 300.506436 
L 976.928835 298.027004 
L 979.896427 294.059913 
L 981.380223 293.316083 
L 982.864019 292.820197 
L 984.347815 291.332537 
L 985.83161 290.836651 
L 987.315406 290.588708 
L 988.799202 288.853105 
L 990.282998 288.605162 
L 991.766794 301.994096 
L 994.734386 299.018777 
L 996.218182 297.283175 
L 996.218182 297.283175 
" clip-path="url(#pd6034483df)" style="fill: none; stroke: #0000ff; stroke-width: 1.5; stroke-linecap: round"/>
   </g>
   <g id="text_16">
    <!-- Healthy Cells after 547 hours -->
    <g style="fill: #262626" transform="translate(171.322656 68.6592)scale(0.65 -0.65)">
     <defs>
      <path id="ArialMT-66" d="M 556 0 
L 556 2881 
L 59 2881 
L 59 3319 
L 556 3319 
L 556 3672 
Q 556 4006 616 4169 
Q 697 4388 901 4523 
Q 1106 4659 1475 4659 
Q 1713 4659 2000 4603 
L 1916 4113 
Q 1741 4144 1584 4144 
Q 1328 4144 1222 4034 
Q 1116 3925 1116 3625 
L 1116 3319 
L 1763 3319 
L 1763 2881 
L 1116 2881 
L 1116 0 
L 556 0 
z
" transform="scale(0.015625)"/>
      <path id="ArialMT-37" d="M 303 3981 
L 303 4522 
L 3269 4522 
L 3269 4084 
Q 2831 3619 2401 2847 
Q 1972 2075 1738 1259 
Q 1569 684 1522 0 
L 944 0 
Q 953 541 1156 1306 
Q 1359 2072 1739 2783 
Q 2119 3494 2547 3981 
L 303 3981 
z
" transform="scale(0.015625)"/>
     </defs>
     <use xlink:href="#ArialMT-48"/>
     <use xlink:href="#ArialMT-65" x="72.216797"/>
     <use xlink:href="#ArialMT-61" x="127.832031"/>
     <use xlink:href="#ArialMT-6c" x="183.447266"/>
     <use xlink:href="#ArialMT-74" x="205.664062"/>
     <use xlink:href="#ArialMT-68" x="233.447266"/>
     <use xlink:href="#ArialMT-79" x="289.0625"/>
     <use xlink:href="#ArialMT-20" x="339.0625"/>
     <use xlink:href="#ArialMT-43" x="366.845703"/>
     <use xlink:href="#ArialMT-65" x="439.0625"/>
     <use xlink:href="#ArialMT-6c" x="494.677734"/>
     <use xlink:href="#ArialMT-6c" x="516.894531"/>
     <use xlink:href="#ArialMT-73" x="539.111328"/>
     <use xlink:href="#ArialMT-20" x="589.111328"/>
     <use xlink:href="#ArialMT-61" x="616.894531"/>
     <use xlink:href="#ArialMT-66" x="672.509766"/>
     <use xlink:href="#ArialMT-74" x="700.292969"/>
     <use xlink:href="#ArialMT-65" x="728.076172"/>
     <use xlink:href="#ArialMT-72" x="783.691406"/>
     <use xlink:href="#ArialMT-20" x="816.992188"/>
     <use xlink:href="#ArialMT-35" x="844.775391"/>
     <use xlink:href="#ArialMT-34" x="900.390625"/>
     <use xlink:href="#ArialMT-37" x="956.005859"/>
     <use xlink:href="#ArialMT-20" x="1011.621094"/>
     <use xlink:href="#ArialMT-68" x="1039.404297"/>
     <use xlink:href="#ArialMT-6f" x="1095.019531"/>
     <use xlink:href="#ArialMT-75" x="1150.634766"/>
     <use xlink:href="#ArialMT-72" x="1206.25"/>
     <use xlink:href="#ArialMT-73" x="1239.550781"/>
    </g>
   </g>
  </g>
 </g>
 <defs>
  <clipPath id="pd6034483df">
   <rect x="144" y="138.24" width="892.8" height="869.76"/>
  </clipPath>
 </defs>
</svg>
